<svg version="1" xmlns="http://www.w3.org/2000/svg" width="413.333" height="413.333" viewBox="0 0 310.000000 310.000000"><path d="M136.3 3.1c-18.7 3.1-35 15.9-43.7 34.2-2.4 5.1-6.5 15.7-9.1 23.7-2.6 8-5.5 15.2-6.4 16.1-.9.9-9.2 4.2-18.6 7.4-9.3 3.2-18.8 6.7-21 7.8-15.7 7.8-27.1 20.3-32.7 35.7l-2.3 6.5v68c0 37.4.3 69.2.8 70.7 1.1 4 6.6 9.8 11.2 11.9 2.4 1.1 6.4 1.9 10.1 1.9 6.9 0 7.6.5 9.9 7.1 1.7 4.9 5.4 9.2 10 11.7 4.6 2.6 71.8 2.4 88.5-.2 82.4-12.8 147.6-71.6 168.4-151.9 5.3-20.4 6-28.4 6.1-68.7 0-33.4-.2-37.8-1.7-40.6-2.5-4.5-8.2-9.2-12.7-10.4-2.1-.5-4.3-1.6-4.9-2.3-.5-.6-1.1-4.6-1.4-8.8-.2-6-.8-8.3-2.7-11.1-3-4.4-7.9-7.7-12.8-8.9-4.9-1.1-128.1-.9-135 .2zm130.4 23.8c-.8 6.9-4.8 14.1-10.4 19.1-3.4 3-18.4 11-53 28.3l-48.1 24.1-2.6 8c-6.1 18.4-19 33.2-36.7 42.1-4.8 2.3-10.5 4.6-12.8 5l-4.2.7-24.3 48.6C57.1 237.7 49 252.9 46 256.3c-4.9 5.6-12.2 9.6-18.8 10.4l-4.7.5.3-55.3c.3-80.2.2-76.3 3.6-83.2 3.6-7 11.7-14.9 18.8-18.2 2.9-1.4 15.1-5.7 27-9.6l21.7-7 7.1-21.7c3.8-11.9 8.1-24.1 9.5-27 5.1-11.1 17.4-20.5 28.7-22.2 2.9-.4 32.9-.8 66.7-.9l61.4-.1-.6 4.9zm20.3 85.6c-1.1 20.5-3.4 32.7-9.1 50C257 224.8 204.3 271.1 139.4 284c-11.4 2.3-38.1 3.8-70.7 3.9L53 288l12-24c9.8-19.6 13-24.9 17-28.9 4.2-4.2 9.9-7.4 36.8-20.9 35.8-17.9 43.8-22.8 56.5-35.1 14.8-14.2 19.4-21.3 38.1-58.6C227 93.5 231.3 85.8 235 82c3.7-3.8 9.1-7 28.5-16.7l24-12.1.3 20.7c.2 11.3-.2 28.7-.8 38.6z"/></svg>